<mxfile host="app.diagrams.net" agent="Mozilla/5.0 (Windows NT 10.0; Win64; x64) AppleWebKit/537.36 (KHTML, like Gecko) Chrome/127.0.0.0 Safari/537.36" version="24.7.7">
  <diagram name="Page-1" id="74e2e168-ea6b-b213-b513-2b3c1d86103e">
    <mxGraphModel dx="1434" dy="1622" grid="1" gridSize="10" guides="1" tooltips="1" connect="1" arrows="1" fold="1" page="1" pageScale="1" pageWidth="1100" pageHeight="850" background="none" math="0" shadow="0">
      <root>
        <mxCell id="0" />
        <mxCell id="1" parent="0" />
        <mxCell id="RccQN4dEfmVBHJKlqXFt-12" style="edgeStyle=orthogonalEdgeStyle;rounded=0;orthogonalLoop=1;jettySize=auto;html=1;entryX=0.5;entryY=0;entryDx=0;entryDy=0;" edge="1" parent="1" source="RccQN4dEfmVBHJKlqXFt-1" target="RccQN4dEfmVBHJKlqXFt-10">
          <mxGeometry relative="1" as="geometry" />
        </mxCell>
        <mxCell id="RccQN4dEfmVBHJKlqXFt-1" value="Olá! Como posso ajudar você hoje?" style="rounded=1;whiteSpace=wrap;html=1;" vertex="1" parent="1">
          <mxGeometry x="210" y="170" width="120" height="60" as="geometry" />
        </mxCell>
        <mxCell id="RccQN4dEfmVBHJKlqXFt-6" style="edgeStyle=orthogonalEdgeStyle;rounded=0;orthogonalLoop=1;jettySize=auto;html=1;entryX=0.342;entryY=-0.017;entryDx=0;entryDy=0;entryPerimeter=0;" edge="1" parent="1" target="RccQN4dEfmVBHJKlqXFt-15">
          <mxGeometry relative="1" as="geometry">
            <mxPoint x="420" y="480" as="targetPoint" />
            <mxPoint x="330" y="450" as="sourcePoint" />
          </mxGeometry>
        </mxCell>
        <mxCell id="RccQN4dEfmVBHJKlqXFt-8" value="SIM" style="edgeLabel;html=1;align=center;verticalAlign=middle;resizable=0;points=[];" vertex="1" connectable="0" parent="RccQN4dEfmVBHJKlqXFt-6">
          <mxGeometry x="-0.2707" y="1" relative="1" as="geometry">
            <mxPoint as="offset" />
          </mxGeometry>
        </mxCell>
        <mxCell id="RccQN4dEfmVBHJKlqXFt-7" style="edgeStyle=orthogonalEdgeStyle;rounded=0;orthogonalLoop=1;jettySize=auto;html=1;entryX=0.5;entryY=0;entryDx=0;entryDy=0;" edge="1" parent="1" target="RccQN4dEfmVBHJKlqXFt-16">
          <mxGeometry relative="1" as="geometry">
            <mxPoint x="130" y="480" as="targetPoint" />
            <mxPoint x="210" y="450" as="sourcePoint" />
          </mxGeometry>
        </mxCell>
        <mxCell id="RccQN4dEfmVBHJKlqXFt-9" value="NÃO" style="edgeLabel;html=1;align=center;verticalAlign=middle;resizable=0;points=[];" vertex="1" connectable="0" parent="RccQN4dEfmVBHJKlqXFt-7">
          <mxGeometry x="-0.1802" y="2" relative="1" as="geometry">
            <mxPoint as="offset" />
          </mxGeometry>
        </mxCell>
        <mxCell id="RccQN4dEfmVBHJKlqXFt-10" value="Retorno do usuário" style="rounded=0;whiteSpace=wrap;html=1;" vertex="1" parent="1">
          <mxGeometry x="210" y="290" width="120" height="60" as="geometry" />
        </mxCell>
        <mxCell id="RccQN4dEfmVBHJKlqXFt-13" value="&lt;span style=&quot;color: rgb(0, 0, 0); font-family: Helvetica; font-size: 12px; font-style: normal; font-variant-ligatures: normal; font-variant-caps: normal; font-weight: 400; letter-spacing: normal; orphans: 2; text-align: center; text-indent: 0px; text-transform: none; widows: 2; word-spacing: 0px; -webkit-text-stroke-width: 0px; white-space: normal; background-color: rgb(251, 251, 251); text-decoration-thickness: initial; text-decoration-style: initial; text-decoration-color: initial; display: inline !important; float: none;&quot;&gt;Claro! Temos uma variedade de produtos.&lt;/span&gt;&lt;br style=&quot;forced-color-adjust: none; color: rgb(0, 0, 0); font-family: Helvetica; font-size: 12px; font-style: normal; font-variant-ligatures: normal; font-variant-caps: normal; font-weight: 400; letter-spacing: normal; orphans: 2; text-align: center; text-indent: 0px; text-transform: none; widows: 2; word-spacing: 0px; -webkit-text-stroke-width: 0px; white-space: normal; background-color: rgb(251, 251, 251); text-decoration-thickness: initial; text-decoration-style: initial; text-decoration-color: initial;&quot;&gt;&lt;span style=&quot;color: rgb(0, 0, 0); font-family: Helvetica; font-size: 12px; font-style: normal; font-variant-ligatures: normal; font-variant-caps: normal; font-weight: 400; letter-spacing: normal; orphans: 2; text-align: center; text-indent: 0px; text-transform: none; widows: 2; word-spacing: 0px; -webkit-text-stroke-width: 0px; white-space: normal; background-color: rgb(251, 251, 251); text-decoration-thickness: initial; text-decoration-style: initial; text-decoration-color: initial; display: inline !important; float: none;&quot;&gt;Gostaria de visualizar nosso catalogo?&lt;/span&gt;" style="rounded=0;whiteSpace=wrap;html=1;" vertex="1" parent="1">
          <mxGeometry x="210" y="400" width="130" height="80" as="geometry" />
        </mxCell>
        <mxCell id="RccQN4dEfmVBHJKlqXFt-14" style="edgeStyle=orthogonalEdgeStyle;rounded=0;orthogonalLoop=1;jettySize=auto;html=1;" edge="1" parent="1" source="RccQN4dEfmVBHJKlqXFt-10">
          <mxGeometry relative="1" as="geometry">
            <mxPoint x="270" y="400" as="targetPoint" />
          </mxGeometry>
        </mxCell>
        <mxCell id="RccQN4dEfmVBHJKlqXFt-15" value="" style="rounded=0;whiteSpace=wrap;html=1;" vertex="1" parent="1">
          <mxGeometry x="380" y="490" width="120" height="60" as="geometry" />
        </mxCell>
        <mxCell id="RccQN4dEfmVBHJKlqXFt-16" value="Se precisar de ajuda, estarei aqui. Tenha um ótimo dia!" style="rounded=0;whiteSpace=wrap;html=1;" vertex="1" parent="1">
          <mxGeometry x="60" y="490" width="120" height="70" as="geometry" />
        </mxCell>
        <mxCell id="RccQN4dEfmVBHJKlqXFt-17" value="&lt;p&gt;&lt;strong&gt;Chatbot:&lt;/strong&gt; Olá! Como posso ajudar você hoje?&lt;/p&gt;&lt;ol&gt;&lt;li&gt;&lt;p&gt;&lt;strong&gt;Usuário:&lt;/strong&gt; Quero saber mais sobre seus produtos.&lt;/p&gt;&lt;ul&gt;&lt;li&gt;&lt;strong&gt;Chatbot:&lt;/strong&gt; Claro! Temos uma variedade de produtos. Você está interessado em algum tipo específico? (e.g., eletrônicos, roupas, livros)&lt;/li&gt;&lt;/ul&gt;&lt;/li&gt;&lt;li&gt;&lt;p&gt;&lt;strong&gt;Usuário:&lt;/strong&gt; Estou interessado em eletrônicos.&lt;/p&gt;&lt;ul&gt;&lt;li&gt;&lt;strong&gt;Chatbot:&lt;/strong&gt; Ótimo! Nossos eletrônicos incluem celulares, laptops e acessórios. Qual deles você gostaria de saber mais?&lt;/li&gt;&lt;/ul&gt;&lt;/li&gt;&lt;li&gt;&lt;p&gt;&lt;strong&gt;Usuário:&lt;/strong&gt; Quero saber sobre laptops.&lt;/p&gt;&lt;ul&gt;&lt;li&gt;&lt;strong&gt;Chatbot:&lt;/strong&gt; Temos vários modelos de laptops. Você está procurando por alguma especificação em particular, como tamanho da tela ou capacidade de armazenamento?&lt;/li&gt;&lt;/ul&gt;&lt;/li&gt;&lt;li&gt;&lt;p&gt;&lt;strong&gt;Usuário:&lt;/strong&gt; Sim, estou procurando um laptop com boa capacidade de armazenamento.&lt;/p&gt;&lt;ul&gt;&lt;li&gt;&lt;strong&gt;Chatbot:&lt;/strong&gt; Entendi. Nossos laptops com alta capacidade de armazenamento têm entre 512 GB e 1 TB de SSD. Deseja saber mais sobre algum modelo específico?&lt;/li&gt;&lt;/ul&gt;&lt;/li&gt;&lt;li&gt;&lt;p&gt;&lt;strong&gt;Usuário:&lt;/strong&gt; Pode me falar sobre o modelo X123?&lt;/p&gt;&lt;ul&gt;&lt;li&gt;&lt;strong&gt;Chatbot:&lt;/strong&gt; O modelo X123 vem com 1 TB de SSD, 16 GB de RAM e uma tela de 15,6 polegadas. É ótimo para multitarefas e armazenamento de grandes arquivos. Gostaria de saber o preço ou se há algo mais que eu possa ajudar?&lt;/li&gt;&lt;/ul&gt;&lt;/li&gt;&lt;li&gt;&lt;p&gt;&lt;strong&gt;Usuário:&lt;/strong&gt; Qual é o preço?&lt;/p&gt;&lt;ul&gt;&lt;li&gt;&lt;strong&gt;Chatbot:&lt;/strong&gt; O modelo X123 custa R$4.299,00. Oferecemos também opções de parcelamento. Gostaria de mais informações ou ajuda com a compra?&lt;/li&gt;&lt;/ul&gt;&lt;/li&gt;&lt;li&gt;&lt;p&gt;&lt;strong&gt;Usuário:&lt;/strong&gt; Sim, por favor. Como faço para comprar?&lt;/p&gt;&lt;ul&gt;&lt;li&gt;&lt;strong&gt;Chatbot:&lt;/strong&gt; Você pode fazer a compra diretamente em nosso site. Vou enviar o link para a página de compras do modelo X123. [Link para a página de compra]&lt;/li&gt;&lt;/ul&gt;&lt;/li&gt;&lt;li&gt;&lt;p&gt;&lt;strong&gt;Usuário:&lt;/strong&gt; Obrigado!&lt;/p&gt;&lt;ul&gt;&lt;li&gt;&lt;strong&gt;Chatbot:&lt;/strong&gt; De nada! Se precisar de mais ajuda ou tiver outras perguntas, estarei aqui. Tenha um ótimo dia!&lt;/li&gt;&lt;/ul&gt;&lt;/li&gt;&lt;/ol&gt;" style="whiteSpace=wrap;html=1;" vertex="1" parent="1">
          <mxGeometry x="680" y="-180" width="420" height="850" as="geometry" />
        </mxCell>
      </root>
    </mxGraphModel>
  </diagram>
</mxfile>
